<svg width="383" height="373" viewBox="0 0 383 373" fill="none" xmlns="http://www.w3.org/2000/svg">
<rect x="41" y="139" width="300" height="145" fill="white"/>
<path d="M103 271V276H109C107.125 276 103 273.598 103 271Z" fill="#4A62FF"/>
<path d="M279 271V276H273C274.875 276 279 273.598 279 271Z" fill="#4A62FF"/>
<path d="M334.5 137L319.5 137C315.951 137 309.469 137 309.469 137L277.939 276H103.987L72.4933 137C72.4933 137 70.5485 137 67 137H47.5057C43.9571 137 41 137 41 137V287.401V293.315V309.848C41 324.835 54.381 337 70.8669 337H311.133C327.619 337 341 324.835 341 309.848V293.315V287.401V137C341 137 338.049 137 334.5 137Z" fill="#4A62FF"/>
<path d="M184 269V276H177C180.898 276 184 272.898 184 269Z" fill="#4A62FF"/>
<path d="M200 269V276H207C203.102 276 200 272.898 200 269Z" fill="#4A62FF"/>
<path d="M191.721 282C191.721 282 184.266 282 184 282V137C184 137 191.593 137 192.52 137C193.447 137 199.975 137 199.975 137L199.988 282C199.988 282 200.242 282 198.378 282H195.981H191.721Z" fill="#4A62FF"/>
<path d="M341 91.5589C341 95.1074 338.043 98.0646 334.494 98.0646H47.506C43.9574 98.0646 41.0003 95.1074 41.0003 91.5589V66.8669C40.9264 50.381 54.3073 37 70.8672 37H311.133C327.619 37 341 50.381 341 66.8669V91.5589Z" fill="#00A963"/>
<rect x="41" y="93" width="300" height="68" fill="#00A963"/>
<path d="M171 185.025C122 217.128 74.3333 201.284 41 176.016V161H341V176.016C307.667 201.284 262 217.128 213 185.025C179.667 159.757 204.333 159.757 171 185.025Z" fill="#00A963"/>
<path d="M232.42 79C236.251 79 238.659 83.1319 236.77 86.4651L208.436 136.465C207.549 138.032 205.887 139 204.086 139H179.831C178.075 139 176.447 138.079 175.543 136.572L145.543 86.5725C143.544 83.2399 145.944 79 149.831 79H232.42Z" fill="#4A62FF"/>
<path d="M68 90.1139C88.5675 87.0435 98.1592 81.7482 127.772 95.3433" stroke="#4A62FF" stroke-width="10" stroke-linecap="round"/>
<path d="M68 90.1139C88.5675 87.0435 98.1592 81.7482 127.772 95.3433" stroke="#4A62FF" stroke-width="10" stroke-linecap="round"/>
<path d="M74.0001 126.006C96.442 116.024 109.073 110.879 133.089 115.587" stroke="#4A62FF" stroke-width="10" stroke-linecap="round"/>
<path d="M74.0001 126.006C96.442 116.024 109.073 110.879 133.089 115.587" stroke="#4A62FF" stroke-width="10" stroke-linecap="round"/>
<path d="M90.9999 158.923C111.576 141.621 123.195 132.861 145.378 133.566" stroke="#4A62FF" stroke-width="10" stroke-linecap="round"/>
<path d="M90.9999 158.923C111.576 141.621 123.195 132.861 145.378 133.566" stroke="#4A62FF" stroke-width="10" stroke-linecap="round"/>
<path d="M314.378 90.228C293.811 87.1575 284.219 81.8622 254.607 95.4573" stroke="#4A62FF" stroke-width="10" stroke-linecap="round"/>
<path d="M314.378 90.228C293.811 87.1575 284.219 81.8622 254.607 95.4573" stroke="#4A62FF" stroke-width="10" stroke-linecap="round"/>
<path d="M308.378 126.12C285.936 116.137 273.306 110.993 249.29 115.701" stroke="#4A62FF" stroke-width="10" stroke-linecap="round"/>
<path d="M308.378 126.12C285.936 116.137 273.306 110.993 249.29 115.701" stroke="#4A62FF" stroke-width="10" stroke-linecap="round"/>
<path d="M293.378 159.294C272.803 141.992 261.183 133.231 239 133.937" stroke="#4A62FF" stroke-width="10" stroke-linecap="round"/>
<path d="M293.378 159.294C272.803 141.992 261.183 133.231 239 133.937" stroke="#4A62FF" stroke-width="10" stroke-linecap="round"/>
</svg>
