<?xml version="1.0" encoding="utf-8"?>
<!-- Generator: Adobe Illustrator 25.2.0, SVG Export Plug-In . SVG Version: 6.00 Build 0)  -->
<svg version="1.1" id="Layer_1" xmlns="http://www.w3.org/2000/svg" x="0px" y="0px" height="100%" width="100%"
     viewBox="0 0 255.15 40.79" style="enable-background:new 0 0 255.15 40.79;" xml:space="preserve">
<style type="text/css">
	.st0{fill:#FFFFFF;}
	.st1{fill:#00A963;}
	.st2{fill:#4A62FF;}
</style>
<g>
	<g>
		<path class="st0" d="M57.33,10.28h-6.24V6.11h17v4.16h-6.24v16.35h-4.51V10.28z"/>
		<path class="st0" d="M73.01,6.11h9.38c2.61,0,4.63,0.73,5.98,2.08c1.14,1.14,1.76,2.75,1.76,4.69v0.06c0,3.31-1.79,5.39-4.4,6.36
			l5.01,7.33h-5.28l-4.4-6.56h-3.55v6.56h-4.51V6.11z M82.09,16.08c2.2,0,3.46-1.17,3.46-2.9v-0.06c0-1.93-1.35-2.93-3.55-2.93
			h-4.48v5.89H82.09z"/>
		<path class="st0" d="M102.69,5.97h4.16l8.79,20.66h-4.72l-1.88-4.6h-8.67l-1.88,4.6h-4.6L102.69,5.97z M107.44,18.04l-2.73-6.65
			l-2.73,6.65H107.44z"/>
		<path class="st0" d="M120.28,6.11h8c6.45,0,10.9,4.43,10.9,10.2v0.06c0,5.77-4.45,10.26-10.9,10.26h-8V6.11z M124.79,10.19v12.37
			h3.49c3.69,0,6.18-2.49,6.18-6.13v-0.06c0-3.63-2.49-6.18-6.18-6.18H124.79z"/>
		<path class="st0" d="M144.66,6.11h15.47v4.02h-10.99v4.16h9.67v4.01h-9.67v4.31h11.14v4.02h-15.62V6.11z"/>
		<path class="st0" d="M164.17,6.11h4.84l4.25,13.89l4.6-13.95h3.87l4.6,13.95l4.25-13.89h4.72l-7,20.66h-3.93l-4.63-13.42
			l-4.63,13.42h-3.93L164.17,6.11z"/>
		<path class="st0" d="M200.1,6.11h15.47v4.02h-10.99v4.16h9.67v4.01h-9.67v4.31h11.14v4.02H200.1V6.11z"/>
		<path class="st0" d="M221.2,6.11h4.51v16.41h10.23v4.1H221.2V6.11z"/>
		<path class="st0" d="M240.8,6.11h4.51v16.41h10.23v4.1H240.8V6.11z"/>
	</g>
	<g>
		<g>
			<g>
				<path class="st1" d="M41.64,7.38c0,0.48-0.4,0.88-0.88,0.88H1.94c-0.48,0-0.88-0.4-0.88-0.88V4.04C1.05,1.81,2.86,0,5.1,0h32.5
					c2.23,0,4.04,1.81,4.04,4.04V7.38z"/>
			</g>
			<g>
				<path class="st1" d="M18.08,26.49c-0.48,0-0.87-0.39-0.87-0.87V15.19c0-0.48,0.39-0.87,0.87-0.87h6.53
					c0.48,0,0.87,0.39,0.87,0.87v10.44c0,0.48-0.39,0.87-0.87,0.87H18.08z"/>
			</g>
			<path class="st2" d="M40.76,14.32h-6.77c-0.48,0-0.88,0.4-0.88,0.88v17.12H9.58V15.2c0-0.48-0.4-0.88-0.88-0.88H1.94
				c-0.48,0-0.88,0.4-0.88,0.88v18v0.88v2.46c0,2.23,1.81,4.04,4.04,4.04h32.5c2.23,0,4.04-1.81,4.04-4.04v-2.46V33.2v-18
				C41.64,14.72,41.24,14.32,40.76,14.32z"/>
		</g>
		<g>
			<path class="st2" d="M9.58,31.44v0.88h0.88C9.98,32.32,9.58,31.93,9.58,31.44z"/>
		</g>
		<g>
			<path class="st2" d="M33.11,31.44v0.88h-0.88C32.72,32.32,33.11,31.93,33.11,31.44z"/>
		</g>
	</g>
	<g>
		<path class="st0" d="M58.15,33.75h-2.68v-1.58h7.3v1.58h-2.68v6.79h-1.94V33.75z"/>
		<path class="st0" d="M79.26,38.99v1.56h-6.48v-8.37h6.33v1.56h-4.4v1.82h3.89v1.51H74.7v1.94H79.26z"/>
		<path class="st0" d="M89.22,36.36c0-2.52,1.94-4.33,4.55-4.33c1.45,0,2.66,0.53,3.45,1.48l-1.24,1.15
			c-0.56-0.65-1.27-0.98-2.11-0.98c-1.57,0-2.68,1.1-2.68,2.68c0,1.58,1.11,2.68,2.68,2.68c0.84,0,1.54-0.34,2.11-0.99l1.24,1.15
			c-0.79,0.97-2,1.5-3.46,1.5C91.15,40.69,89.22,38.88,89.22,36.36z"/>
		<path class="st0" d="M115.16,32.17v8.37h-1.94v-3.43h-3.8v3.43h-1.94v-8.37h1.94v3.3h3.8v-3.3H115.16z"/>
		<path class="st0" d="M133.79,32.17v8.37h-1.59l-4.18-5.08v5.08h-1.91v-8.37h1.6l4.16,5.08v-5.08H133.79z"/>
		<path class="st0" d="M144.22,36.36c0-2.49,1.94-4.33,4.58-4.33c2.63,0,4.58,1.83,4.58,4.33c0,2.5-1.95,4.33-4.58,4.33
			C146.15,40.69,144.22,38.85,144.22,36.36z M151.42,36.36c0-1.59-1.12-2.68-2.62-2.68c-1.5,0-2.62,1.09-2.62,2.68
			c0,1.59,1.12,2.68,2.62,2.68C150.29,39.04,151.42,37.95,151.42,36.36z"/>
		<path class="st0" d="M163.81,32.17h1.94v6.79h4.2v1.58h-6.14V32.17z"/>
		<path class="st0" d="M179.33,36.36c0-2.49,1.94-4.33,4.58-4.33c2.63,0,4.58,1.83,4.58,4.33c0,2.5-1.95,4.33-4.58,4.33
			C181.27,40.69,179.33,38.85,179.33,36.36z M186.53,36.36c0-1.59-1.12-2.68-2.62-2.68c-1.5,0-2.62,1.09-2.62,2.68
			c0,1.59,1.12,2.68,2.62,2.68C185.41,39.04,186.53,37.95,186.53,36.36z"/>
		<path class="st0" d="M204.58,36.23h1.77v3.4c-0.92,0.69-2.19,1.06-3.39,1.06c-2.63,0-4.57-1.81-4.57-4.33s1.94-4.33,4.61-4.33
			c1.47,0,2.69,0.5,3.5,1.45l-1.24,1.15c-0.61-0.65-1.32-0.94-2.17-0.94c-1.63,0-2.74,1.09-2.74,2.68c0,1.57,1.11,2.68,2.72,2.68
			c0.53,0,1.02-0.1,1.51-0.36V36.23z"/>
		<path class="st0" d="M217.11,32.17h1.94v8.37h-1.94V32.17z"/>
		<path class="st0" d="M236.48,38.99v1.56H230v-8.37h6.33v1.56h-4.4v1.82h3.89v1.51h-3.89v1.94H236.48z"/>
		<path class="st0" d="M246.34,39.72l0.66-1.46c0.71,0.51,1.76,0.87,2.76,0.87c1.15,0,1.62-0.38,1.62-0.9c0-1.57-4.87-0.49-4.87-3.6
			c0-1.42,1.15-2.61,3.53-2.61c1.05,0,2.13,0.25,2.91,0.74l-0.6,1.47c-0.78-0.44-1.58-0.66-2.32-0.66c-1.15,0-1.59,0.43-1.59,0.96
			c0,1.54,4.87,0.48,4.87,3.55c0,1.4-1.16,2.6-3.55,2.6C248.42,40.69,247.08,40.29,246.34,39.72z"/>
	</g>
</g>
</svg>
